<?xml version="1.0" encoding="iso-8859-1"?>
<!-- Uploaded to: SVG Repo, www.svgrepo.com, Generator: SVG Repo Mixer Tools -->
<svg fill="#000000" height="800px" width="800px" version="1.1" id="Layer_1" xmlns="http://www.w3.org/2000/svg" xmlns:xlink="http://www.w3.org/1999/xlink" 
	 viewBox="0 0 512 512" xml:space="preserve">
<g>
	<g>
		<path d="M312.8,221.273c0.059-1.065,0.089-2.132,0.089-3.199c0-31.368-25.521-56.889-56.889-56.889s-56.889,25.521-56.889,56.889
			c0,1.067,0.03,2.134,0.089,3.199c-22.483,7.859-38.015,29.176-38.015,53.69c0,31.368,25.521,56.889,56.889,56.889
			c14.258,0,27.597-5.167,37.926-14.456c10.329,9.289,23.668,14.456,37.926,14.456c31.368,0,56.889-25.521,56.889-56.889
			C350.815,250.449,335.282,229.132,312.8,221.273z M293.926,312.889c-12.041,0-23.101-5.53-30.346-15.171
			c-1.791-2.384-4.599-3.787-7.58-3.787s-5.789,1.403-7.58,3.787c-7.245,9.641-18.305,15.171-30.346,15.171
			c-20.912,0-37.926-17.014-37.926-37.926c0-18.407,13.127-34.109,31.213-37.336c2.54-0.451,4.786-1.921,6.22-4.067
			c1.433-2.143,1.93-4.78,1.376-7.301c-0.586-2.667-0.883-5.421-0.883-8.185c0-20.912,17.014-37.926,37.926-37.926
			s37.926,17.014,37.926,37.926c0,2.764-0.297,5.518-0.883,8.185c-0.554,2.521-0.057,5.157,1.376,7.301
			c1.434,2.146,3.68,3.616,6.22,4.067c18.086,3.227,31.213,18.928,31.213,37.336C331.852,295.875,314.838,312.889,293.926,312.889z"
			/>
	</g>
</g>
<g>
	<g>
		<path d="M256,0C114.841,0,0,114.84,0,256s114.841,256,256,256s256-114.84,256-256S397.159,0,256,0z M461.255,137.544
			l-69.918,31.074c-12.42-19.169-28.786-35.535-47.955-47.954l31.074-69.919C410.414,71.579,440.421,101.586,461.255,137.544z
			 M398.222,256c0,78.421-63.801,142.222-142.222,142.222S113.778,334.421,113.778,256S177.579,113.778,256,113.778
			S398.222,177.579,398.222,256z M256,18.963c36.355,0,70.82,8.236,101.64,22.926l-30.825,69.356
			c-21.389-10.507-45.419-16.43-70.815-16.43c-25.395,0-49.426,5.924-70.815,16.43L154.36,41.889
			C185.18,27.199,219.645,18.963,256,18.963z M137.544,50.745l31.074,69.919c-19.169,12.419-35.535,28.785-47.955,47.953
			l-69.918-31.074C71.579,101.586,101.586,71.579,137.544,50.745z M18.963,256c0-36.357,8.236-70.82,22.926-101.641l69.356,30.826
			c-10.507,21.389-16.43,45.419-16.43,70.815c0,25.396,5.924,49.426,16.43,70.815l-69.356,30.826
			C27.199,326.82,18.963,292.357,18.963,256z M50.745,374.456l69.918-31.074c12.42,19.169,28.786,35.535,47.955,47.953
			l-31.074,69.919C101.586,440.421,71.579,410.414,50.745,374.456z M256,493.037c-36.355,0-70.82-8.236-101.64-22.926l30.825-69.356
			c21.389,10.507,45.42,16.43,70.815,16.43c25.396,0,49.426-5.924,70.815-16.43l30.825,69.356
			C326.82,484.801,292.355,493.037,256,493.037z M374.456,461.255l-31.074-69.919c19.169-12.419,35.535-28.785,47.955-47.954
			l69.918,31.074C440.421,410.414,410.414,440.421,374.456,461.255z M400.755,326.815c10.507-21.389,16.43-45.419,16.43-70.815
			c0-25.396-5.924-49.426-16.43-70.815l69.356-30.826c14.69,30.822,22.926,65.285,22.926,101.641s-8.236,70.82-22.926,101.641
			L400.755,326.815z"/>
	</g>
</g>
</svg>